<?xml version="1.0" encoding="UTF-8"?>
<svg width="60px" height="48px" viewBox="0 0 60 48" version="1.1" xmlns="http://www.w3.org/2000/svg" xmlns:xlink="http://www.w3.org/1999/xlink">
    <!-- Generator: Sketch 48.2 (47327) - http://www.bohemiancoding.com/sketch -->
    <title>ic_MavicAir2@1x</title>
    <desc>Created with Sketch.</desc>
    <defs></defs>
    <g id="Slices" stroke="none" stroke-width="1" fill="none" fill-rule="evenodd">
        <g id="ic_MavicAir2" fill="#707473">
            <g id="Page-1" transform="translate(12.000000, 19.000000)">
                <path d="M11.3604,8.44619286 L18.2404,8.44619286 C18.3284,8.44619286 18.4004,8.51690714 18.4004,8.60333571 L18.4004,9.07555 C18.4004,9.16197857 18.3284,9.23190714 18.2404,9.23190714 L11.3604,9.23190714 C11.2716,9.23190714 11.2004,9.16197857 11.2004,9.07555 L11.2004,8.60333571 C11.2004,8.51690714 11.2716,8.44619286 11.3604,8.44619286" id="Fill-1"></path>
                <path d="M15.60024,5.30333571 L18.80024,5.30333571 L18.80024,8.09340714 C18.80024,8.17983571 18.72904,8.24976429 18.64024,8.24976429 L15.76024,8.24976429 C15.67144,8.24976429 15.60024,8.17983571 15.60024,8.09340714 L15.60024,5.30333571 Z" id="Fill-3"></path>
                <path d="M15.52016,1.76762143 L18.88016,1.76762143 C19.05696,1.76762143 19.20016,1.90905 19.20016,2.08190714 L19.20016,4.79340714 C19.20016,4.96626429 19.05696,5.10690714 18.88016,5.10690714 L15.52016,5.10690714 C15.34336,5.10690714 15.20016,4.96626429 15.20016,4.79340714 L15.20016,2.08190714 C15.20016,1.90905 15.34336,1.76762143 15.52016,1.76762143" id="Fill-5"></path>
                <path d="M24.20024,9.48435714 L34.88024,9.48435714 C35.05704,9.48435714 35.20024,9.62578571 35.20024,9.79864286 L35.20024,9.91885714 C35.20024,10.0917143 35.05704,10.2331429 34.88024,10.2331429 L24.20024,10.2331429 L24.20024,9.48435714 Z" id="Fill-7"></path>
                <path d="M9.12016,9.48435714 L19.80016,9.48435714 L19.80016,10.2331429 L9.12016,10.2331429 C8.94336,10.2331429 8.80016,10.0917143 8.80016,9.91885714 L8.80016,9.79864286 C8.80016,9.62578571 8.94336,9.48435714 9.12016,9.48435714" id="Fill-9"></path>
                <path d="M20.32016,9.11067143 L23.68016,9.11067143 C23.85696,9.11067143 24.00016,9.25131429 24.00016,9.42417143 L24.00016,10.2931714 C24.00016,10.4668143 23.85696,10.6066714 23.68016,10.6066714 L20.32016,10.6066714 C20.14336,10.6066714 20.00016,10.4668143 20.00016,10.2931714 L20.00016,9.42417143 C20.00016,9.25131429 20.14336,9.11067143 20.32016,9.11067143" id="Fill-11"></path>
                <path d="M20.32016,5.93937143 L23.68016,5.93937143 C23.85696,5.93937143 24.00016,6.0808 24.00016,6.25365714 L24.00016,8.60844286 C24.00016,8.78287143 23.85696,8.92351429 23.68016,8.92351429 L20.32016,8.92351429 C20.14336,8.92351429 20.00016,8.78287143 20.00016,8.60844286 L20.00016,6.25365714 C20.00016,6.0808 20.14336,5.93937143 20.32016,5.93937143" id="Fill-13"></path>
                <path d="M31.48616,6.67833571 L24.85416,6.67833571 C24.75656,6.67833571 24.66456,6.63512143 24.60376,6.56126429 L23.99656,5.81405 C23.93576,5.74019286 23.84376,5.69619286 23.74616,5.69619286 L20.31976,5.69619286 C20.14376,5.69619286 20.00056,5.55555 20.00056,5.38269286 L20.00056,4.04619286 C20.00056,3.87333571 20.14376,3.73190714 20.31976,3.73190714 L23.74616,3.73190714 C23.84376,3.73190714 23.93576,3.68869286 23.99656,3.61483571 L24.60376,2.86762143 C24.66456,2.79376429 24.75656,2.74976429 24.85416,2.74976429 L31.60056,2.74976429 C32.77256,2.74976429 33.70936,3.74133571 33.58936,4.91676429 C33.48616,5.93976429 32.53256,6.67833571 31.48616,6.67833571" id="Fill-15"></path>
                <path d="M4.00024,7.66047857 L12.00024,7.66047857 L12.00024,8.83905 L6.58904,8.83905 C5.49304,8.83905 4.85144,8.57976429 4.00024,7.66047857" id="Fill-17"></path>
                <path d="M16.80024,7.46405 L14.80024,7.46405 L12.06024,7.46405 C12.02744,7.46405 12.00024,7.43812143 12.00024,7.40590714 L12.00024,7.13012143 C12.00024,7.09790714 11.97304,7.07119286 11.94024,7.07119286 L9.66024,7.07119286 C9.62744,7.07119286 9.60024,7.09790714 9.60024,7.13012143 L9.60024,7.40590714 C9.60024,7.43812143 9.57304,7.46405 9.54024,7.46405 L4.39784,7.46405 C4.27704,7.46405 4.16584,7.39726429 4.11144,7.29040714 L3.46744,6.02540714 C3.42344,5.93897857 3.40024,5.84233571 3.40024,5.74490714 L3.40024,4.04619286 C3.40024,3.87333571 3.54344,3.73190714 3.72024,3.73190714 L14.19224,3.73190714 C14.31864,3.73190714 14.43384,3.80576429 14.48424,3.91890714 L15.11624,5.11712143 C15.16664,5.23026429 15.28184,5.30333571 15.40824,5.30333571 L16.80024,5.30333571 L16.80024,7.46405 Z" id="Fill-19"></path>
                <path d="M19.40024,0.392621429 L30.08024,0.392621429 C30.25704,0.392621429 30.40024,0.53405 30.40024,0.706907143 L30.40024,0.864835714 C30.40024,1.03769286 30.25704,1.17833571 30.08024,1.17833571 L19.40024,1.17833571 L19.40024,0.392621429 Z" id="Fill-21"></path>
                <path d="M4.32016,0.392621429 L15.00016,0.392621429 L15.00016,1.17833571 L4.32016,1.17833571 C4.14336,1.17833571 4.00016,1.03769286 4.00016,0.864835714 L4.00016,0.706907143 C4.00016,0.53405 4.14336,0.392621429 4.32016,0.392621429" id="Fill-23"></path>
                <path d="M15.52016,-0.000235714286 L18.88016,-0.000235714286 C19.05696,-0.000235714286 19.20016,0.141192857 19.20016,0.31405 L19.20016,1.25769286 C19.20016,1.43055 19.05696,1.57119286 18.88016,1.57119286 L15.52016,1.57119286 C15.34336,1.57119286 15.20016,1.43055 15.20016,1.25769286 L15.20016,0.31405 C15.20016,0.141192857 15.34336,-0.000235714286 15.52016,-0.000235714286" id="Fill-25"></path>
                <path d="M9.12016,10.42965 C8.83376,10.42965 8.60016,10.2002214 8.60016,9.91893571 L8.60016,9.79872143 C8.60016,9.51743571 8.83376,9.28800714 9.12016,9.28800714 L11.32656,9.28800714 L11.28656,9.20943571 C11.23216,9.10336429 11.12096,9.03579286 11.00016,9.03579286 L6.49776,9.03579286 C5.02896,9.03579286 3.74976,8.05443571 3.39376,6.65507857 L3.19936,5.89293571 L3.19936,3.85007857 C3.19936,3.67643571 3.34256,3.53579286 3.51936,3.53579286 L12.80416,3.53579286 C13.30816,3.53579286 13.78096,3.30479286 14.08336,2.90879286 C14.41936,2.46800714 14.86976,1.87636429 15.25216,1.37507857 L4.32016,1.37507857 C4.07696,1.37507857 3.88176,1.20693571 3.82496,0.984578571 C0.52416,1.43007857 0.00016,1.96436429 0.00016,1.96436429 L0.63136,3.20422143 C0.74176,3.42186429 0.80016,3.66307857 0.80016,3.90665 L0.80016,4.84557857 L1.43536,7.13357857 C2.00416,9.18429286 3.90096,10.6072214 6.06496,10.6072214 L11.99776,10.6072214 L11.90736,10.42965 L9.12016,10.42965 Z" id="Fill-28"></path>
                <path d="M35.40728,3.58073571 L35.58328,2.15073571 C35.59288,2.06116429 35.53128,1.98023571 35.44488,1.96923571 C34.76728,1.88280714 31.52648,1.58109286 19.20008,1.58109286 L19.20008,1.68952143 C19.31928,1.78302143 19.40008,1.92130714 19.40008,2.08237857 L19.40008,4.79309286 C19.40008,4.95416429 19.31928,5.09166429 19.20008,5.18516429 L19.20008,9.81695 L19.80008,9.81695 L19.80008,6.25373571 C19.80008,6.08087857 19.94328,5.93945 20.12008,5.93945 L23.81688,5.93945 L23.81528,5.93709286 C23.79208,5.90880714 23.75768,5.89230714 23.72168,5.89230714 L20.29528,5.89230714 C20.00808,5.89230714 19.77528,5.66287857 19.77528,5.38159286 L19.77528,4.04666429 C19.77528,3.76459286 20.00808,3.53516429 20.29528,3.53516429 L23.72168,3.53516429 C23.75768,3.53516429 23.79208,3.51945 23.81528,3.49116429 L24.42328,2.74552143 C24.52248,2.62295 24.67048,2.55302143 24.82888,2.55302143 L31.57528,2.55302143 C32.19528,2.55302143 32.79048,2.81230714 33.20728,3.26487857 C33.62888,3.72373571 33.82648,4.31695 33.76328,4.93687857 C33.65368,6.02273571 32.64168,6.87445 31.46088,6.87445 L24.82888,6.87445 C24.67048,6.87445 24.52248,6.80530714 24.42328,6.68273571 L24.20008,6.41009286 L24.20008,9.28816429 L34.61288,9.28816429 C34.76488,9.12237857 34.89688,8.93459286 34.97208,8.70987857 L35.24248,7.90687857 C35.35368,7.57452143 35.65768,7.35216429 36.00008,7.35216429 L36.00008,4.26116429 C35.64488,4.26116429 35.36808,3.94373571 35.40728,3.58073571" id="Fill-31"></path>
                <path d="M0.59984,3.90680714 C0.59984,3.69387857 0.54864,3.48173571 0.45184,3.29159286 L0.00464,2.41395 C0.00464,2.41395 0.09504,4.71373571 0.19984,4.71373571 L0.60544,4.71373571 L0.59984,3.90680714 Z" id="Fill-34"></path>
                <path d="M1.60024,8.07942143 L1.60024,9.66499286 C1.60024,9.75142143 1.67144,9.82135 1.76024,9.82135 L3.07704,9.82135 C2.45864,9.36799286 1.95304,8.77242143 1.60024,8.07942143" id="Fill-36"></path>
            </g>
        </g>
    </g>
</svg>