<?xml version="1.0" encoding="UTF-8"?>
<svg width="60px" height="48px" viewBox="0 0 60 48" version="1.1" xmlns="http://www.w3.org/2000/svg" xmlns:xlink="http://www.w3.org/1999/xlink">
    <!-- Generator: Sketch 48.2 (47327) - http://www.bohemiancoding.com/sketch -->
    <title>ic_MG1_front_48</title>
    <desc>Created with Sketch.</desc>
    <defs></defs>
    <g id="Page-1" stroke="none" stroke-width="1" fill="none" fill-rule="evenodd">
        <g id="ic_MG1_front_48" fill="#707473">
            <path d="M33,29.6028724 L33,31 L27,31 L27,29.5931376 L25.2645161,28.2064518 L23.5301176,33.4096473 C23.819457,33.6830991 24,34.0704655 24,34.5 C24,35.3284271 23.3284271,36 22.5,36 C21.6715729,36 21,35.3284271 21,34.5 C21,33.7289957 21.5816987,33.0938544 22.3301638,33.0095086 L24.2116129,27.3651614 L20,24 L20,23 L24,23 L24,24 L25.3333333,24 L25.9090909,22.2727273 L24,21 L7,21 L7,27 L6,27 L6,21 L5,21 L5,19 L5,18.5 C5,18.2238576 5.22385763,18 5.5,18 L8.5,18 C8.77614237,18 9,18.2238576 9,18.5 L9,19 L18,19 L18,18.5 C18,18.2238576 18.2238576,18 18.5,18 L21.5,18 C21.7761424,18 22,18.2238576 22,18.5 L22,19 L24,19 L26,18 L30,18 L34,18 L36,19 L38,19 L38,18.5 C38,18.2238576 38.2238576,18 38.5,18 L41.5,18 C41.7761424,18 42,18.2238576 42,18.5 L42,19 L51,19 L51,18.5 C51,18.2238576 51.2238576,18 51.5,18 L54.5,18 C54.7761424,18 55,18.2238576 55,18.5 L55,19 L55,21 L54,21 L54,27 L53,27 L53,21 L36,21 L34.0909091,22.2727273 L37.6698362,33.0095086 C38.4183013,33.0938544 39,33.7289957 39,34.5 C39,35.3284271 38.3284271,36 37.5,36 C36.6715729,36 36,35.3284271 36,34.5 C36,34.0704655 36.180543,33.6830991 36.4698824,33.4096473 L34.7402289,28.2206866 L33,29.6028724 Z M27,23 L26.6666667,24 L30,24 L33.3333333,24 L33,23 L30,23 L27,23 Z M10.5,16 C10.7761424,16 11,16.2238576 11,16.5 C11,16.7761424 10.7761424,17 10.5,17 L3.5,17 C3.22385763,17 3,16.7761424 3,16.5 C3,16.2238576 3.22385763,16 3.5,16 L10.5,16 Z M25.5,16 C25.7761424,16 26,16.2238576 26,16.5 C26,16.7761424 25.7761424,17 25.5,17 L14.5,17 C14.2238576,17 14,16.7761424 14,16.5 C14,16.2238576 14.2238576,16 14.5,16 L25.5,16 Z M49.5,16 L56.5,16 C56.7761424,16 57,16.2238576 57,16.5 C57,16.7761424 56.7761424,17 56.5,17 L49.5,17 C49.2238576,17 49,16.7761424 49,16.5 C49,16.2238576 49.2238576,16 49.5,16 Z M34.5,16 L45.5,16 C45.7761424,16 46,16.2238576 46,16.5 C46,16.7761424 45.7761424,17 45.5,17 L34.5,17 C34.2238576,17 34,16.7761424 34,16.5 C34,16.2238576 34.2238576,16 34.5,16 Z" id="Combined-Shape"></path>
        </g>
    </g>
</svg>